HIERARCHY
ROOT Zhanghao:Solving:Hips
{
	OFFSET 0.000000 0.000000 0.000000
	CHANNELS 6 Xposition Yposition Zposition Xrotation Yrotation Zrotation
	JOINT Zhanghao:Solving:Spine
	{
		OFFSET 0.000000 -9.563771 2.098718
		CHANNELS 6 Xposition Yposition Zposition Xrotation Yrotation Zrotation
		JOINT Zhanghao:Solving:Spine1
		{
			OFFSET 0.000000 -9.562875 1.686196
			CHANNELS 6 Xposition Yposition Zposition Xrotation Yrotation Zrotation
			JOINT Zhanghao:Solving:Spine2
			{
				OFFSET 0.000000 -9.673449 0.846319
				CHANNELS 6 Xposition Yposition Zposition Xrotation Yrotation Zrotation
				JOINT Zhanghao:Solving:Spine3
				{
					OFFSET 0.000000 -9.710396 0.000000
					CHANNELS 6 Xposition Yposition Zposition Xrotation Yrotation Zrotation
					JOINT Zhanghao:Solving:Neck
					{
						OFFSET 0.000000 -12.484798 -1.248478
						CHANNELS 6 Xposition Yposition Zposition Xrotation Yrotation Zrotation
						JOINT Zhanghao:Solving:Neck1
						{
							OFFSET 0.000000 -5.748112 -0.502893
							CHANNELS 6 Xposition Yposition Zposition Xrotation Yrotation Zrotation
							JOINT Zhanghao:Solving:Head
							{
								OFFSET 0.000000 -5.682407 -1.001961
								CHANNELS 6 Xposition Yposition Zposition Xrotation Yrotation Zrotation
								JOINT Zhanghao:Solving:HeadEnd
								{
									OFFSET 0.000000 -9.728077 0.000002
									CHANNELS 6 Xposition Yposition Zposition Xrotation Yrotation Zrotation
									End Site
									{
										OFFSET 0.000000 -9.728081 0.000002
									}
								}
							}
						}
					}
					JOINT Zhanghao:Solving:RightShoulder
					{
						OFFSET 0.000000 -8.917713 -5.270916
						CHANNELS 6 Xposition Yposition Zposition Xrotation Yrotation Zrotation
						JOINT Zhanghao:Solving:RightArm
						{
							OFFSET -18.341640 -0.000008 0.000000
							CHANNELS 6 Xposition Yposition Zposition Xrotation Yrotation Zrotation
							JOINT Zhanghao:Solving:RightForeArm
							{
								OFFSET -27.519978 -0.000008 0.000000
								CHANNELS 6 Xposition Yposition Zposition Xrotation Yrotation Zrotation
								JOINT Zhanghao:Solving:RightHand
								{
									OFFSET -22.582626 -0.000008 0.000000
									CHANNELS 6 Xposition Yposition Zposition Xrotation Yrotation Zrotation
									JOINT Zhanghao:Solving:RightHandThumb1
									{
										OFFSET -4.292824 2.781349 -3.192099
										CHANNELS 6 Xposition Yposition Zposition Xrotation Yrotation Zrotation
										End Site
										{
											OFFSET -6.150612 -0.000004 -6.207481
										}
									}
									JOINT Zhanghao:Solving:RightHandMiddle1
									{
										OFFSET -11.447525 -0.000004 0.073382
										CHANNELS 6 Xposition Yposition Zposition Xrotation Yrotation Zrotation
										End Site
										{
											OFFSET -8.738586 -0.000004 0.000000
										}
									}
								}
							}
						}
					}
					JOINT Zhanghao:Solving:LeftShoulder
					{
						OFFSET 0.000000 -8.917713 -5.270916
						CHANNELS 6 Xposition Yposition Zposition Xrotation Yrotation Zrotation
						JOINT Zhanghao:Solving:LeftArm
						{
							OFFSET 18.341640 -0.000008 0.000000
							CHANNELS 6 Xposition Yposition Zposition Xrotation Yrotation Zrotation
							JOINT Zhanghao:Solving:LeftForeArm
							{
								OFFSET 27.519978 -0.000008 0.000000
								CHANNELS 6 Xposition Yposition Zposition Xrotation Yrotation Zrotation
								JOINT Zhanghao:Solving:LeftHand
								{
									OFFSET 22.582626 -0.000008 0.000000
									CHANNELS 6 Xposition Yposition Zposition Xrotation Yrotation Zrotation
									JOINT Zhanghao:Solving:LeftHandThumb1
									{
										OFFSET 4.292824 2.781349 -3.192099
										CHANNELS 6 Xposition Yposition Zposition Xrotation Yrotation Zrotation
										End Site
										{
											OFFSET 6.150612 -0.000004 -6.207481
										}
									}
									JOINT Zhanghao:Solving:LeftHandMiddle1
									{
										OFFSET 11.447525 -0.000004 0.073382
										CHANNELS 6 Xposition Yposition Zposition Xrotation Yrotation Zrotation
										End Site
										{
											OFFSET 8.738586 -0.000004 0.000000
										}
									}
								}
							}
						}
					}
				}
			}
		}
	}
	JOINT Zhanghao:Solving:RightUpLeg
	{
		OFFSET -9.107882 0.000000 0.000000
		CHANNELS 6 Xposition Yposition Zposition Xrotation Yrotation Zrotation
		JOINT Zhanghao:Solving:RightLeg
		{
			OFFSET 0.000000 38.746075 -0.000006
			CHANNELS 6 Xposition Yposition Zposition Xrotation Yrotation Zrotation
			JOINT Zhanghao:Solving:RightFoot
			{
				OFFSET 0.000000 37.141575 -0.000006
				CHANNELS 6 Xposition Yposition Zposition Xrotation Yrotation Zrotation
				JOINT Zhanghao:Solving:RightForeFoot
				{
					OFFSET 0.000000 3.208229 -0.000000
					CHANNELS 6 Xposition Yposition Zposition Xrotation Yrotation Zrotation
					JOINT Zhanghao:Solving:RightToeBase
					{
						OFFSET 0.000000 0.000000 -12.564445
						CHANNELS 6 Xposition Yposition Zposition Xrotation Yrotation Zrotation
						JOINT Zhanghao:Solving:RightToeBaseEnd
						{
							OFFSET 0.000000 0.000000 -4.358174
							CHANNELS 6 Xposition Yposition Zposition Xrotation Yrotation Zrotation
							End Site
							{
								OFFSET 0.000000 -4.358177 0.000000
							}
						}
					}
				}
			}
		}
	}
	JOINT Zhanghao:Solving:LeftUpLeg
	{
		OFFSET 9.107882 0.000000 0.000000
		CHANNELS 6 Xposition Yposition Zposition Xrotation Yrotation Zrotation
		JOINT Zhanghao:Solving:LeftLeg
		{
			OFFSET 0.000000 38.746075 -0.000006
			CHANNELS 6 Xposition Yposition Zposition Xrotation Yrotation Zrotation
			JOINT Zhanghao:Solving:LeftFoot
			{
				OFFSET 0.000000 37.141575 -0.000006
				CHANNELS 6 Xposition Yposition Zposition Xrotation Yrotation Zrotation
				JOINT Zhanghao:Solving:LeftForeFoot
				{
					OFFSET 0.000000 3.208229 -0.000000
					CHANNELS 6 Xposition Yposition Zposition Xrotation Yrotation Zrotation
					JOINT Zhanghao:Solving:LeftToeBase
					{
						OFFSET 0.000000 0.000000 -12.564445
						CHANNELS 6 Xposition Yposition Zposition Xrotation Yrotation Zrotation
						JOINT Zhanghao:Solving:LeftToeBaseEnd
						{
							OFFSET 0.000000 0.000000 -4.448388
							CHANNELS 6 Xposition Yposition Zposition Xrotation Yrotation Zrotation
							End Site
							{
								OFFSET 0.000000 -4.448387 0.000000
							}
						}
					}
				}
			}
		}
	}
}
MOTION
Frames: 6
Frame Time: 0.041667
-14.341619 -153.380371 -82.350845 -81.678196 0.329695 178.481340 0.000000 -9.563781 2.098726 14.049493 0.023671 0.945996 0.000001 -9.562876 1.686227 -0.500743 -0.156203 0.769929 -0.000000 -9.673439 0.846331 -1.660839 -0.510369 0.390212 0.000001 -9.710403 0.000026 -1.187726 0.567825 -2.012614 -0.000000 -12.484840 -1.248500 -7.598057 0.975040 1.073940 -0.000000 -5.748082 -0.502897 1.508385 7.301403 -0.025380 -0.000005 -5.682425 -1.001965 4.149377 0.524709 -0.528217 -0.000009 -9.728062 -0.000024 0.000000 -0.000002 -0.000000 0.000001 -8.917747 -5.270907 -0.000007 12.207460 -0.808623 -18.341625 0.000018 -0.000020 9.994271 -34.605153 -68.265692 -27.519976 -0.000021 -0.000003 -4.356566 -17.974570 -1.346775 -22.582605 -0.000020 0.000032 0.249473 -2.939910 4.852492 -4.292811 2.781335 -3.192140 -0.000001 -0.000009 -0.000004 -11.447528 -0.000018 0.073337 -0.000001 -0.000002 -0.000003 0.000001 -8.917744 -5.270907 -0.000003 -8.674445 -0.210997 18.341623 0.000023 -0.000012 11.548864 37.626949 69.797771 27.519978 -0.000023 0.000015 -0.414621 19.427309 0.137935 22.582617 -0.000020 0.000003 -0.062115 0.463053 7.641257 4.292832 2.781368 -3.192105 0.000004 -0.000003 0.000001 11.447527 0.000012 0.073386 0.000002 0.000000 0.000003 -9.107884 -0.000020 -0.000002 17.986936 9.983149 3.693802 -0.000005 38.746101 -0.000000 -16.941545 -0.000001 -0.000001 -0.000001 37.141594 -0.000009 11.812583 31.340043 -11.521727 -0.000002 3.208221 0.000029 0.000000 -0.000002 0.000001 0.000001 -0.000010 -12.564451 17.757233 -0.000002 0.000000 -0.000003 -0.000000 -4.358161 0.000000 0.000004 -0.000000 9.107882 -0.000001 0.000020 19.104729 -3.347521 -0.715847 -0.000000 38.746082 0.000004 -14.797533 0.000000 -0.000001 -0.000004 37.141575 -0.000003 8.507451 -25.947364 0.912787 -0.000000 3.208229 0.000000 0.000001 0.000001 0.000000 0.000009 -0.000001 -12.564478 16.785827 0.000000 -0.000000 0.000007 -0.000023 -4.448420 0.000000 -0.000000 -0.000001 
-14.350803 -153.388031 -82.351128 -81.693243 0.402681 178.463240 0.000002 -9.563778 2.098720 14.048358 0.020254 0.942084 -0.000001 -9.562869 1.686207 -0.505065 -0.155268 0.770737 0.000001 -9.673451 0.846299 -1.672768 -0.486724 0.397370 0.000001 -9.710414 0.000012 -1.194352 0.573381 -2.006393 -0.000001 -12.484811 -1.248497 -7.622697 0.979880 1.077156 -0.000001 -5.748125 -0.502882 1.516201 7.278350 -0.025186 -0.000000 -5.682433 -1.001991 4.148225 0.522587 -0.523542 -0.000004 -9.728100 0.000048 -0.000000 -0.000001 -0.000000 -0.000000 -8.917744 -5.270927 -0.000008 12.223853 -0.750030 -18.341627 0.000006 0.000011 9.924413 -34.538846 -68.223304 -27.519989 0.000026 -0.000030 -4.423350 -17.975991 -1.367597 -22.582607 0.000006 -0.000022 0.252178 -2.914345 4.947589 -4.292819 2.781356 -3.192144 -0.000000 -0.000003 -0.000005 -11.447519 0.000016 0.073382 -0.000001 -0.000003 -0.000002 -0.000001 -8.917736 -5.270927 -0.000006 -8.662239 -0.256878 18.341642 0.000001 -0.000010 11.524179 37.850255 69.495064 27.519981 -0.000014 0.000004 -0.204402 19.571552 0.068493 22.582619 -0.000021 0.000008 -0.055704 0.413988 7.664778 4.292827 2.781360 -3.192094 0.000011 -0.000007 0.000003 11.447539 0.000002 0.073379 0.000007 0.000002 -0.000001 -9.107883 -0.000001 -0.000003 17.986285 10.026982 3.699654 0.000003 38.746094 -0.000043 -16.943596 0.000001 0.000000 0.000004 37.141602 -0.000013 11.813892 31.365178 -11.530713 0.000020 3.208229 -0.000024 0.000000 -0.000004 0.000001 0.000015 0.000010 -12.564442 17.761750 -0.000006 0.000003 0.000009 -0.000000 -4.358178 0.000000 0.000002 0.000000 9.107889 -0.000009 0.000004 19.083122 -3.276053 -0.715982 0.000002 38.746094 -0.000002 -14.793775 0.000000 -0.000001 -0.000002 37.141594 0.000046 8.503729 -25.938133 0.906292 0.000005 3.208221 -0.000032 -0.000000 -0.000002 0.000000 -0.000003 -0.000009 -12.564433 16.808785 0.000003 -0.000000 0.000006 -0.000001 -4.448418 -0.000003 -0.000001 0.000000 
-14.358517 -153.396851 -82.350800 -81.701459 0.462764 178.449388 0.000001 -9.563780 2.098755 14.049194 0.018980 0.944111 0.000001 -9.562878 1.686207 -0.508364 -0.154681 0.768814 -0.000002 -9.673452 0.846315 -1.678015 -0.473878 0.398122 -0.000000 -9.710401 -0.000015 -1.207928 0.575829 -2.005783 0.000000 -12.484804 -1.248457 -7.625408 0.978492 1.080030 -0.000000 -5.748106 -0.502864 1.505264 7.257447 -0.022629 -0.000002 -5.682417 -1.001952 4.143326 0.520890 -0.516168 0.000004 -9.728046 -0.000012 -0.000000 -0.000001 0.000000 0.000003 -8.917694 -5.270897 -0.000009 12.233600 -0.693464 -18.341633 0.000017 -0.000007 9.863745 -34.468772 -68.177896 -27.519979 -0.000012 0.000001 -4.486553 -17.976979 -1.387278 -22.582632 -0.000009 -0.000010 0.251202 -2.861565 5.018873 -4.292817 2.781354 -3.192096 0.000004 -0.000005 -0.000001 -11.447532 -0.000003 0.073367 0.000001 0.000001 0.000001 0.000003 -8.917698 -5.270897 -0.000007 -8.643390 -0.284844 18.341635 -0.000012 -0.000024 11.501375 38.031361 69.212800 27.520004 -0.000000 -0.000001 -0.128381 19.717308 0.043338 22.582621 -0.000026 0.000001 -0.053120 0.395980 7.641379 4.292834 2.781347 -3.192116 -0.000002 -0.000003 0.000003 11.447556 -0.000010 0.073390 -0.000001 -0.000000 0.000002 -9.107882 -0.000004 0.000029 17.991968 10.054116 3.704254 0.000003 38.746105 -0.000019 -16.943220 -0.000001 -0.000000 0.000001 37.141582 0.000017 11.809186 31.394411 -11.526013 0.000002 3.208221 0.000054 0.000000 -0.000004 0.000000 -0.000003 0.000013 -12.564423 17.763698 -0.000007 0.000001 0.000006 -0.000016 -4.358204 -0.000002 0.000000 0.000000 9.107879 -0.000002 0.000034 19.073069 -3.210947 -0.717686 0.000002 38.746094 0.000025 -14.795277 0.000000 -0.000001 -0.000003 37.141560 -0.000013 8.509173 -25.942378 0.899538 0.000006 3.208221 0.000010 0.000000 0.000004 0.000000 0.000006 -0.000001 -12.564460 16.816023 0.000003 -0.000000 0.000017 -0.000009 -4.448360 -0.000003 -0.000001 -0.000001 
-14.365967 -153.405502 -82.351173 -81.707149 0.514651 178.438323 0.000001 -9.563766 2.098786 14.052714 0.017008 0.943043 0.000003 -9.562893 1.686175 -0.508165 -0.154251 0.768087 -0.000000 -9.673430 0.846317 -1.689003 -0.469286 0.394753 -0.000000 -9.710390 0.000013 -1.211025 0.578085 -2.009556 -0.000000 -12.484820 -1.248461 -7.655534 0.961100 1.071351 -0.000000 -5.748100 -0.502886 1.514338 7.234576 0.008683 -0.000005 -5.682394 -1.001947 4.135711 0.518051 -0.512130 -0.000003 -9.728054 -0.000022 0.000000 -0.000000 -0.000000 -0.000003 -8.917740 -5.270935 -0.000005 12.236654 -0.630024 -18.341631 0.000008 -0.000034 9.785295 -34.357887 -68.161511 -27.520006 0.000002 -0.000006 -4.503826 -17.992057 -1.393774 -22.582613 -0.000005 -0.000038 0.251231 -2.835295 5.065687 -4.292837 2.781341 -3.192142 -0.000002 -0.000002 0.000002 -11.447516 -0.000014 0.073365 -0.000000 -0.000001 0.000001 -0.000002 -8.917740 -5.270935 -0.000003 -8.632055 -0.292243 18.341629 -0.000003 0.000020 11.448861 38.179798 68.950521 27.519987 0.000003 -0.000003 -0.063680 19.854207 0.021657 22.582617 0.000010 -0.000023 -0.049800 0.372911 7.607414 4.292787 2.781374 -3.192057 0.000010 -0.000003 0.000001 11.447533 -0.000010 0.073384 0.000006 0.000001 -0.000000 -9.107882 0.000006 0.000058 18.000064 10.075706 3.708919 -0.000001 38.746067 -0.000039 -16.943466 -0.000000 0.000000 -0.000001 37.141609 0.000011 11.808425 31.418737 -11.518058 0.000017 3.208221 -0.000017 -0.000000 -0.000005 0.000001 0.000037 -0.000012 -12.564469 17.782391 -0.000006 -0.000001 -0.000024 -0.000017 -4.358164 -0.000004 0.000010 -0.000003 9.107884 0.000014 0.000094 19.064663 -3.168314 -0.717074 0.000004 38.746082 0.000010 -14.792854 0.000000 -0.000001 -0.000006 37.141567 -0.000017 8.504268 -25.931413 0.896977 -0.000005 3.208206 -0.000039 -0.000000 0.000001 0.000000 -0.000010 -0.000001 -12.564452 16.798944 0.000001 -0.000001 -0.000027 -0.000007 -4.448412 0.000003 0.000001 -0.000001 
-14.372252 -153.414169 -82.350952 -81.710400 0.559032 178.427491 0.000000 -9.563769 2.098743 14.053531 0.013266 0.944002 -0.000001 -9.562864 1.686211 -0.510300 -0.154112 0.766555 -0.000000 -9.673455 0.846293 -1.685909 -0.468441 0.399168 -0.000000 -9.710415 0.000011 -1.221488 0.579472 -2.017271 -0.000002 -12.484775 -1.248495 -7.671757 0.948780 1.103027 0.000001 -5.748148 -0.502852 1.506235 7.223983 -0.022651 0.000002 -5.682390 -1.001980 4.136894 0.515656 -0.492495 -0.000004 -9.728054 0.000013 -0.000000 -0.000001 -0.000000 -0.000003 -8.917667 -5.270948 -0.000008 12.233223 -0.578281 -18.341625 0.000016 0.000016 9.712267 -34.247470 -68.144183 -27.520002 0.000017 0.000001 -4.491593 -18.003781 -1.390849 -22.582603 -0.000011 0.000006 0.246839 -2.770498 5.093243 -4.292811 2.781347 -3.192122 -0.000002 0.000003 -0.000003 -11.447521 -0.000010 0.073375 -0.000002 0.000001 0.000004 -0.000002 -8.917679 -5.270947 -0.000005 -8.614603 -0.303848 18.341629 -0.000009 -0.000012 11.314668 38.164870 68.789588 27.519978 -0.000006 -0.000001 0.112254 19.978005 -0.038327 22.582615 -0.000020 0.000002 -0.050479 0.381293 7.542476 4.292834 2.781339 -3.192142 -0.000003 -0.000003 0.000004 11.447558 -0.000032 0.073341 -0.000002 -0.000001 0.000003 -9.107882 0.000007 0.000027 18.008096 10.096901 3.715322 0.000003 38.746067 -0.000015 -16.939270 0.000000 -0.000003 0.000009 37.141594 -0.000041 11.803341 31.446082 -11.552039 -0.000018 3.208221 0.000030 0.000001 -0.000007 0.000000 0.000036 -0.000002 -12.564439 17.787080 -0.000002 0.000001 -0.000002 0.000001 -4.358191 0.000003 0.000002 0.000000 9.107882 0.000003 0.000007 19.059558 -3.124914 -0.716672 -0.000005 38.746063 0.000021 -14.789241 0.000001 -0.000001 0.000000 37.141586 0.000005 8.501723 -25.925733 0.894407 0.000006 3.208221 0.000013 -0.000000 -0.000003 0.000000 0.000005 0.000002 -12.564449 16.807094 0.000001 -0.000000 0.000003 -0.000031 -4.448419 -0.000001 0.000002 0.000000 
-14.378949 -153.423279 -82.350998 -81.713678 0.596913 178.414636 -0.000001 -9.563767 2.098694 14.052953 0.010724 0.947175 0.000001 -9.562868 1.686159 -0.515496 -0.154624 0.765889 0.000001 -9.673460 0.846290 -1.684364 -0.472041 0.397803 -0.000003 -9.710390 -0.000008 -1.228163 0.579602 -2.018742 0.000003 -12.484801 -1.248511 -7.692152 0.942734 1.092429 -0.000001 -5.748108 -0.502855 1.501371 7.199886 0.008077 -0.000003 -5.682417 -1.001991 4.146589 0.512679 -0.478117 0.000006 -9.728046 -0.000030 0.000000 0.000001 -0.000000 0.000003 -8.917686 -5.270924 -0.000007 12.224323 -0.527608 -18.341629 -0.000033 0.000002 9.649278 -34.163066 -68.132858 -27.520004 -0.000023 -0.000030 -4.528493 -18.001011 -1.402115 -22.582598 -0.000008 -0.000012 0.251436 -2.818106 5.100600 -4.292815 2.781353 -3.192028 0.000003 -0.000007 0.000000 -11.447524 -0.000004 0.073459 0.000006 -0.000001 0.000001 0.000003 -8.917683 -5.270924 -0.000005 -8.583587 -0.302676 18.341631 0.000026 -0.000010 11.200397 38.174679 68.610063 27.519957 0.000004 0.000024 0.161112 20.083237 -0.055296 22.582611 -0.000002 -0.000001 -0.051427 0.390251 7.508749 4.292828 2.781324 -3.192102 0.000003 0.000002 0.000006 11.447525 -0.000001 0.073405 -0.000007 0.000000 0.000001 -9.107883 0.000001 0.000005 18.014395 10.133702 3.724941 -0.000003 38.746067 -0.000007 -16.936615 0.000002 -0.000000 0.000002 37.141598 0.000014 11.803647 31.450374 -11.586174 -0.000005 3.208221 -0.000006 0.000000 -0.000001 0.000000 0.000003 0.000002 -12.564427 17.802010 0.000003 -0.000000 0.000014 -0.000000 -4.358187 0.000000 -0.000001 0.000000 9.107880 -0.000007 -0.000013 19.055103 -3.085953 -0.712099 0.000001 38.746090 0.000028 -14.785688 0.000000 -0.000001 0.000001 37.141582 -0.000028 8.500096 -25.921415 0.889684 0.000007 3.208229 -0.000006 0.000001 -0.000002 0.000000 -0.000004 -0.000008 -12.564472 16.814176 0.000000 -0.000000 -0.000020 -0.000022 -4.448409 0.000004 -0.000002 0.000000 
